<svg height="512" viewBox="0 0 60 60" width="512" xmlns="http://www.w3.org/2000/svg"><g id="Page-1" fill="none" fill-rule="evenodd"><g id="020---Listen-On-Mobile" fill-rule="nonzero"><g id="Icons" transform="translate(1 1)"><path id="Shape" d="m54 25v1h-4c.0053447-.0865843.0053447-.1734157 0-.26.0000001-7.5025775-4.0025773-14.435245-10.4999999-18.18653374-6.4974227-3.75128876-14.5025775-3.75128876-21.0000002 0-6.4974226 3.75128874-10.50000001 10.68395624-10.4999999 18.18653374-.00460188.0866056-.00460188.1733944 0 .26h-4c0-.33 0-.67 0-1 0-13.8071187 11.1928813-25 25-25s25 11.1928813 25 25z" fill="#ffdc00"/><path id="Shape" d="m29 0c-.5 0-1 0-1.5.05 13.1988229.79335845 23.4973769 11.7273551 23.5 24.95v1h3c0-.33 0-.67 0-1 0-6.6304122-2.633921-12.9892601-7.3223305-17.67766953-4.6884094-4.68840946-11.0472573-7.32233047-17.6776695-7.32233047z" fill="#fec108"/><path id="Shape" d="m8 26v20h-4c-2.209139 0-4-1.790861-4-4v-12c0-2.209139 1.790861-4 4-4z" fill="#ffeb3a"/><path id="Shape" d="m58 30v12c0 2.209139-1.790861 4-4 4h-4v-20h4c2.209139 0 4 1.790861 4 4z" fill="#ffeb3a"/><path id="Shape" d="m54 26h-3c2.209139 0 4 1.790861 4 4v12c0 2.209139-1.790861 4-4 4h3c2.209139 0 4-1.790861 4-4v-12c0-2.209139-1.790861-4-4-4z" fill="#fdd834"/><path id="Shape" d="m16 27v18c0 1.6568542-1.3431458 3-3 3h-3c-1.1045695 0-2-.8954305-2-2v-20c-.00496295-.0899316-.00496295-.1800684 0-.27.13593305-.998009.99281841-1.7392148 2-1.73h3c1.6568542 0 3 1.3431458 3 3z" fill="#7f8e94"/><path id="Shape" d="m50 26v20c0 1.1045695-.8954305 2-2 2h-3c-1.6568542 0-3-1.3431458-3-3v-18c0-1.6568542 1.3431458-3 3-3h3c1.0071816-.0092148 1.8640669.731991 2 1.73.0057642.0899077.0057642.1800923 0 .27z" fill="#7f8e94"/><path id="Shape" d="m42 50v4c0 2.209139-1.790861 4-4 4h-18c-2.209139 0-4-1.790861-4-4v-4c0 2.209139 1.790861 4 4 4h18c2.209139 0 4-1.790861 4-4z" fill="#607d8b"/><rect id="Rectangle-path" fill="#02a9f4" height="42" rx="4" width="26" x="16" y="12"/><g fill="#607d8b"><path id="Shape" d="m38 12-3.12 3.12c-.5620694.5627699-1.3246186.8792998-2.12.88h-7.52c-.7953814-.0007002-1.5579306-.3172301-2.12-.88l-3.12-3.12z"/><rect id="Rectangle-path" height="16" rx="2" width="8" x="25" y="23"/></g></g><g id="Icons_copy" fill="#000"><path id="Shape" d="m56 26.1v-.1c0-14.3594035-11.6405965-26-26-26s-26 11.6405965-26 26v.1c-2.32833127.4752686-4.00048501 2.5236569-4 4.9v12c0 1.3260824.5267842 2.597852 1.46446609 3.5355339.9376819.9376819 2.20945146 1.4644661 3.53553391 1.4644661h3.18c.4227483 1.1957287 1.55174508 1.9964356 2.82 2h3c.7049599-.0029552 1.3960071-.1964484 2-.56v5.56c0 2.7614237 2.2385763 5 5 5h18c2.7614237 0 5-2.2385763 5-5v-5.56c.6039929.3635516 1.2950401.5570448 2 .56h3c1.2682549-.0035644 2.3972517-.8042713 2.82-2h3.18c1.3260824 0 2.597852-.5267842 3.5355339-1.4644661s1.4644661-2.2094515 1.4644661-3.5355339v-12c.000485-2.3763431-1.6716687-4.4247314-4-4.9zm-26-24.1c13.254834 0 24 10.745166 24 24h-2c0-12.1502645-9.8497355-22-22-22s-22 9.8497355-22 22h-2c0-13.254834 10.745166-24 24-24zm12 44v5c0 1.6568542-1.3431458 3-3 3h-18c-1.6568542 0-3-1.3431458-3-3v-34c-.0122302-1.5191311 1.1130499-2.8076197 2.62-3l2.79 2.79c.7479677.7591227 1.7644213 1.1937195 2.83 1.21h7.52c1.0598902-.0056485 2.0755505-.4255505 2.83-1.17l2.79-2.83c1.5069501.1923803 2.6322302 1.4808689 2.62 3zm-18.59-32h13.18l-1.42 1.41c-.3733503.3755878-.8804232.5877672-1.41.59h-7.52c-.5295768-.0022328-1.0366497-.2144122-1.41-.59zm15.59-2h-18c-2.7614237 0-5 2.2385763-5 5v7.56c-.6039929-.3635516-1.2950401-.5570448-2-.56h-3c-.3101689.0018206-.6178122.0559118-.91.16.9771362-10.2651246 9.5984735-18.10476914 19.91-18.10476914s18.9328638 7.83964454 19.91 18.10476914c-.2921878-.1040882-.5998311-.1581794-.91-.16h-3c-.7049599.0029552-1.3960071.1964484-2 .56v-7.56c0-2.7614237-2.2385763-5-5-5zm-37 31v-12c0-1.6568542 1.34314575-3 3-3h3v18h-3c-1.65685425 0-3-1.3431458-3-3zm12 5h-3c-.5522847 0-1-.4477153-1-1v-20c0-.5522847.4477153-1 1-1h3c1.1045695 0 2 .8954305 2 2v18c0 1.1045695-.8954305 2-2 2zm25 10h-18c-1.6568542 0-3-1.3431458-3-3 .8627124.6543771 1.9172039 1.0058742 3 1h18c1.0827961.0058742 2.1372876-.3456229 3-1 0 1.6568542-1.3431458 3-3 3zm10-10h-3c-1.1045695 0-2-.8954305-2-2v-18c0-1.1045695.8954305-2 2-2h3c.5522847 0 1 .4477153 1 1v20c0 .5522847-.4477153 1-1 1zm9-5c0 1.6568542-1.3431458 3-3 3h-3v-18h3c1.6568542 0 3 1.3431458 3 3z"/><path id="Shape" d="m38 36c-.5522847 0-1 .4477153-1 1v1c0 2.7614237-2.2385763 5-5 5h-4c-2.7614237 0-5-2.2385763-5-5v-1c0-.5522847-.4477153-1-1-1s-1 .4477153-1 1v1c0 3.8659932 3.1340068 7 7 7h1v3h-1c-.5522847 0-1 .4477153-1 1s.4477153 1 1 1h4c.5522847 0 1-.4477153 1-1s-.4477153-1-1-1h-1v-3h1c3.8659932 0 7-3.1340068 7-7v-1c0-.5522847-.4477153-1-1-1z"/><path id="Shape" d="m28 41h4c1.6568542 0 3-1.3431458 3-3v-12c0-1.6568542-1.3431458-3-3-3h-4c-1.6568542 0-3 1.3431458-3 3v12c0 1.6568542 1.3431458 3 3 3zm-1-15c0-.5522847.4477153-1 1-1h4c.5522847 0 1 .4477153 1 1v1h-1c-.5522847 0-1 .4477153-1 1s.4477153 1 1 1h1v2h-1c-.5522847 0-1 .4477153-1 1s.4477153 1 1 1h1v2h-1c-.5522847 0-1 .4477153-1 1s.4477153 1 1 1h1v1c0 .5522847-.4477153 1-1 1h-4c-.5522847 0-1-.4477153-1-1z"/></g></g></g></svg>